<?xml version="1.0" encoding="utf-8"?><svg viewBox="0 0 30 30" xmlns="http://www.w3.org/2000/svg" xmlns:xlink="http://www.w3.org/1999/xlink"><style>:root>svg{display:none}:root>svg:target{display:block}</style><svg viewBox="0 0 18 18" id="phone" xmlns="http://www.w3.org/2000/svg"><path d="M16.343 12.098a10.49 10.49 0 0 1-3.236-.513.896.896 0 0 0-.926.22l-1.44 1.806c-2.593-1.238-5.023-3.575-6.315-6.261l1.787-1.522a.935.935 0 0 0 .22-.935 10.223 10.223 0 0 1-.513-3.236.916.916 0 0 0-.907-.907H1.84C1.346.75.75.97.75 1.657c0 8.516 7.086 15.593 15.593 15.593.65 0 .907-.578.907-1.082v-3.162a.916.916 0 0 0-.907-.908Z"/></svg><svg viewBox="0 0 17 16" id="search" xmlns="http://www.w3.org/2000/svg"><path d="m16.444 14.188-3.212-2.747a6.968 6.968 0 0 0 1.456-4.285c0-1.88-.734-3.642-2.06-4.97A6.98 6.98 0 0 0 7.655.124a6.99 6.99 0 0 0-4.97 2.06A6.975 6.975 0 0 0 .624 7.156c0 1.878.734 3.645 2.06 4.971a6.975 6.975 0 0 0 4.971 2.06c1.57 0 3.061-.51 4.282-1.453l3.212 2.745a.193.193 0 0 0 .272 0l1.022-1.02a.195.195 0 0 0 .056-.136.193.193 0 0 0-.056-.136Zm-5.075-3.32a5.222 5.222 0 0 1-3.713 1.538 5.222 5.222 0 0 1-3.712-1.537 5.222 5.222 0 0 1-1.538-3.713c0-1.401.546-2.72 1.538-3.712a5.222 5.222 0 0 1 3.712-1.538c1.402 0 2.721.544 3.713 1.538a5.222 5.222 0 0 1 1.537 3.712 5.218 5.218 0 0 1-1.537 3.713Z"/></svg><svg viewBox="0 0 30 30" id="socials-ok" xmlns="http://www.w3.org/2000/svg"><g clip-path="url(#ca)"><path d="M12.853 9.99a2.24 2.24 0 1 0 4.478 0 2.24 2.24 0 0 0-4.478 0Z"/><path fill-rule="evenodd" clip-rule="evenodd" d="M15 30c8.284 0 15-6.716 15-15 0-8.284-6.716-15-15-15C6.716 0 0 6.716 0 15c0 8.284 6.716 15 15 15ZM9.675 9.99a5.417 5.417 0 1 1 10.834 0 5.417 5.417 0 0 1-10.834 0Zm10.866 8.204c-.069.055-1.368 1.082-3.537 1.524l3.274 3.244a1.473 1.473 0 1 1-2.082 2.085l-3.178-3.095-2.886 3.075c-.29.3-.675.45-1.06.45a1.473 1.473 0 0 1-1.06-2.495l3.107-3.247c-2.23-.431-3.583-1.485-3.653-1.541a1.473 1.473 0 0 1 1.843-2.298c.014.01 1.429 1.074 3.71 1.075 2.28-.001 3.666-1.064 3.68-1.075a1.473 1.473 0 0 1 1.842 2.298Z"/></g><defs><clipPath id="ca"><path transform="matrix(-1 0 0 1 30 0)" d="M0 0h30v30H0z"/></clipPath></defs></svg><svg viewBox="0 0 30 30" id="socials-vk" xmlns="http://www.w3.org/2000/svg"><path d="M15 0C6.716 0 0 6.716 0 15c0 8.284 6.716 15 15 15 8.284 0 15-6.716 15-15 0-8.284-6.716-15-15-15Zm7.609 16.622c.699.683 1.439 1.326 2.066 2.08.278.333.54.677.74 1.065.285.553.027 1.159-.467 1.192l-3.073-.001c-.794.066-1.426-.255-1.958-.797-.425-.433-.82-.894-1.229-1.342a2.871 2.871 0 0 0-.553-.492c-.42-.272-.783-.189-1.023.249-.245.445-.3.939-.324 1.434-.033.725-.252.914-.979.948-1.553.073-3.028-.163-4.398-.946-1.208-.69-2.144-1.666-2.959-2.77-1.587-2.152-2.803-4.514-3.895-6.944-.246-.547-.066-.84.538-.85a85.522 85.522 0 0 1 3.009-.002c.408.007.678.24.835.625.542 1.334 1.206 2.603 2.039 3.78.222.313.448.625.77.846.357.245.628.164.796-.233.107-.253.154-.523.177-.794.08-.927.09-1.854-.049-2.777-.086-.578-.41-.951-.987-1.06-.293-.056-.25-.165-.108-.332.248-.29.48-.47.944-.47h3.472c.547.107.67.353.744.904l.003 3.859c-.006.213.107.845.49.985.307.101.51-.145.693-.34.833-.883 1.426-1.926 1.957-3.005.235-.476.437-.969.634-1.462.146-.365.373-.545.785-.539l3.343.004c.099 0 .199.001.296.018.564.097.718.339.544.889-.275.863-.808 1.583-1.329 2.304-.558.772-1.154 1.517-1.707 2.293-.508.709-.468 1.066.163 1.681Z"/></svg></svg>